<svg xmlns="http://www.w3.org/2000/svg" width="135" height="161" viewBox="0 0 135 161" fill="none">
            <path fill-rule="evenodd" clip-rule="evenodd" d="M77.1087 91.8987C75.1164 92.2126 73.5824 92.5333 72.3612 93.429C70.2017 95.0124 69.4979 97.2116 69.2127 101.257C69.166 101.92 68.2587 103.094 67.8134 103.73C66.2936 105.898 64.3505 107.434 61.9668 108.615C59.8478 100.133 57.5799 91.606 55.4701 83.0111C53.3978 74.5674 50.9611 66.1139 49.0235 57.348C48.0828 53.0921 47.2727 48.3244 46.7748 43.3391C45.5298 30.8776 45.5469 16.3824 48.5736 6.02146C49.1974 3.8861 50.2935 0.311792 52.3717 0.135483C54.6908 -0.0614527 54.8647 3.6376 55.4701 5.96252C58.9634 19.3836 62.2574 32.5543 65.5147 46.1644C69.2402 61.7288 73.6262 76.66 77.1087 91.8987Z" fill="black"/>
            <path fill-rule="evenodd" clip-rule="evenodd" d="M58.8187 109.851C57.527 110.461 55.0481 109.964 54.8209 111.675C54.6412 113.028 55.7207 114.28 56.3203 114.971C56.982 115.734 58.1274 116.82 59.1685 116.796C59.9816 116.778 61.0536 116.263 61.9171 116.031C67.0841 114.641 74.1249 114.023 80.2576 115.03C81.1261 115.172 82.4024 115.285 83.0062 115.736C84.375 116.759 83.7112 119.22 82.0067 119.209C81.1365 119.203 80.2446 118.863 79.3582 118.738C72.897 117.823 66.0438 118.714 60.4682 120.386C53.9028 122.354 49.1949 125.687 44.2768 129.45C42.0323 120.66 39.6857 111.738 37.4804 102.786C35.3122 93.9872 32.8663 85.1192 30.7339 76.1225C27.6539 63.1267 25.9618 45.404 28.0854 29.7405C28.4152 27.308 28.8151 24.9728 29.5348 22.7947C30.2961 20.4899 31.1613 16.4397 33.5326 16.3204C35.4456 16.2236 35.6411 18.5107 36.1311 20.3229C37.9261 26.9564 39.4763 34.0947 41.2284 40.6299C43.3099 48.3939 45.1307 56.1358 47.075 63.7622C51.0337 79.2887 55.152 94.6232 58.8187 109.851Z" fill="black"/>
            <path fill-rule="evenodd" clip-rule="evenodd" d="M108.742 124.566C113.332 115.077 118.306 105.515 124.983 98.0787C126.038 96.9034 127.085 95.6619 128.381 94.4882C129.485 93.4892 131.134 92.1097 132.679 91.957C133.679 91.8582 134.5 92.5335 134.778 93.1931C135.275 94.3723 134.496 96.3971 134.178 97.6077C128.693 118.486 123.039 139.34 117.537 160.118C110.397 160.168 104.324 160.098 97.8473 160.177C98.5441 156.377 99.5798 152.511 100.546 148.758C100.665 148.294 100.682 147.622 101.095 147.346C101.296 145.257 102.012 143.35 102.545 141.46C103.621 137.637 104.909 133.978 106.293 130.453C106.979 128.705 107.92 127.069 108.492 125.332C108.622 124.935 107.73 122.924 107.492 122.212C105.175 115.268 102.353 108.876 98.6967 103.554C94.5129 97.4618 89.2117 92.1195 80.6065 91.8401C77.5168 80.8092 74.7853 69.5991 73.6103 55.5818C72.7705 45.5695 73.0928 34.1148 75.1593 25.3273C75.7814 22.6822 76.79 19.2788 78.3078 17.9111C78.914 17.3649 80.0169 16.9725 80.8562 17.6169C81.3691 18.0103 81.8119 19.433 82.1058 20.5596C91.1243 55.1476 99.6703 90.3049 108.742 124.566Z" fill="black"/>
            <path fill-rule="evenodd" clip-rule="evenodd" d="M29.1342 160.059C28.2778 156.715 27.4276 153.346 26.5858 149.994C25.7506 146.668 24.8395 143.384 23.9873 140.047C22.3182 133.511 20.5769 126.569 19.8393 118.916C19.1151 111.4 18.5201 102.644 19.0901 94.547C19.4962 88.777 20.1942 82.9651 21.9387 78.3605C22.6013 76.6107 23.5149 74.0976 25.437 74.1227C27.0519 74.1433 27.2825 76.3081 27.7357 78.0074C31.9124 93.6729 35.5446 109.327 39.6796 125.037C40.094 126.612 40.5606 128.637 41.0288 130.511C41.191 131.161 41.5542 131.915 41.5288 132.218C41.5029 132.523 40.7516 133.255 40.4293 133.63C34.7778 140.206 30.8946 149.022 29.1342 160.059Z" fill="black"/>
            <path fill-rule="evenodd" clip-rule="evenodd" d="M2.07322 89.3101C3.27198 89.1912 4.11007 89.9716 4.42196 90.9578C5.03364 92.8923 3.86281 94.5994 2.47267 94.7251C-0.61659 95.0035 -0.880523 89.6018 2.07322 89.3101Z" fill="black"/>
          </svg> 